<?xml version="1.0"?>
<svg xmlns="http://www.w3.org/2000/svg" xmlns:xlink="http://www.w3.org/1999/xlink" version="1.1" viewBox="0 0 226 226" width="512px" height="512px"><g transform="translate(16.95,16.95) scale(0.85,0.85)"><g fill="none" fill-rule="nonzero" stroke="none" stroke-width="1" stroke-linecap="butt" stroke-linejoin="miter" stroke-miterlimit="10" stroke-dasharray="" stroke-dashoffset="0" font-family="none" font-weight="none" font-size="none" text-anchor="none" style="mix-blend-mode: normal"><path d="M0,226v-226h226v226z" fill="none" stroke="none"/><g stroke="none"><g id="surface1"><path d="M208.34375,109.46875c0,54.61023 -44.26477,98.875 -98.875,98.875c-54.61023,0 -98.875,-44.26477 -98.875,-98.875c0,-54.61023 44.26477,-98.875 98.875,-98.875c54.61023,0 98.875,44.26477 98.875,98.875z" fill="#c5e4fa"/><path d="M44.8855,184.64575c9.35229,8.91089 20.37366,15.89063 32.41577,20.55298l120.44873,-120.44873v-22.70483c-3.72436,-6.17969 -8.12463,-11.93177 -13.10425,-17.15967z" fill="#e3f2ff"/><path d="M38.00232,177.40393l138.56018,-138.56018h-21.1875l-126.35254,126.35254c2.67603,4.28992 5.68311,8.37293 8.97986,12.20764z" fill="#e3f2ff"/><path d="M27.50513,152.58862l117.27612,-117.27612l-10.59375,-7.0625l-111.73096,111.73096c1.39319,4.3175 3.07605,8.52466 5.04859,12.60767z" fill="#e3f2ff"/><path d="M109.46875,10.59375c-54.61023,0 -98.875,44.26477 -98.875,98.875c0,54.61023 44.26477,98.875 98.875,98.875c54.61023,0 98.875,-44.26477 98.875,-98.875c0,-54.61023 -44.26477,-98.875 -98.875,-98.875zM109.46875,187.15625c-34.92627,0 -65.56262,-23.29797 -74.88733,-56.96899c-9.31091,-33.65723 4.97961,-69.39734 34.94006,-87.35706c29.96045,-17.95972 68.22486,-13.71118 93.52295,10.38684l2.40015,2.35876c0.9104,0.95178 1.79321,1.91736 2.64844,2.89673c19.97363,22.96692 24.70495,55.49304 12.0835,83.20508c-12.62146,27.69824 -40.26453,45.47864 -70.70777,45.47864z" fill="#72caaf"/><path d="M109.46875,187.15625c-42.89917,0 -77.6875,-34.78833 -77.6875,-77.6875h-5.86243c-4.19336,-0.01379 -8.17981,1.83459 -10.86963,5.04859c-2.68982,3.21399 -3.82092,7.46252 -3.07605,11.58691c8.06946,47.53393 49.25818,82.32227 97.48181,82.32227c48.22363,0 89.39856,-34.78833 97.48181,-82.32227c0.73108,-4.12439 -0.38623,-8.35913 -3.07605,-11.57312c-2.67603,-3.21399 -6.64868,-5.06238 -10.84204,-5.06238h-5.86243c0,42.89917 -34.78833,77.6875 -77.6875,77.6875z" fill="#66bfa1"/><path d="M147.07105,94.50232c0.78625,-0.6759 1.24145,-1.65527 1.24145,-2.68982v-24.71875c0.02759,-1.75183 -1.24145,-3.25537 -2.9657,-3.53125l-42.375,-7.0625c-1.02075,-0.17932 -2.06909,0.11035 -2.85534,0.77246c-0.81384,0.6897 -1.26904,1.69666 -1.24146,2.75879v46.67871c-2.31738,-0.52417 -4.68994,-0.77246 -7.0625,-0.77246c-15.57336,0 -28.25,11.09033 -28.25,24.71875c0,13.62842 12.67664,24.71875 28.25,24.71875c15.57336,0 28.25,-11.09033 28.25,-24.71875v-39.36792l24.1532,4.05542c1.03455,0.15173 2.08289,-0.15173 2.85535,-0.84143z" fill="#faefde"/><path d="M109.46875,7.0625c-56.55518,0 -102.40625,45.85107 -102.40625,102.40625c0,56.55518 45.85107,102.40625 102.40625,102.40625c56.55518,0 102.40625,-45.85107 102.40625,-102.40625c0,-56.55518 -45.85107,-102.40625 -102.40625,-102.40625zM109.46875,204.8125c-52.65149,0 -95.34375,-42.69226 -95.34375,-95.34375c0,-52.65149 42.69226,-95.34375 95.34375,-95.34375c52.65149,0 95.34375,42.69226 95.34375,95.34375c0,52.65149 -42.69226,95.34375 -95.34375,95.34375z" fill="#8d6c9f"/><path d="M109.46875,176.5625c-1.94495,0 -3.53125,1.5863 -3.53125,3.53125v7.0625c0,1.94495 1.5863,3.53125 3.53125,3.53125c1.94495,0 3.53125,-1.5863 3.53125,-3.53125v-7.0625c0,-1.94495 -1.5863,-3.53125 -3.53125,-3.53125z" fill="#8d6c9f"/><path d="M130.65625,176.83838c-0.55176,-1.80701 -2.45532,-2.86914 -4.28992,-2.37256c-1.84839,0.49658 -2.9519,2.35877 -2.52429,4.22095l1.83459,6.81421c0.52417,1.88977 2.46912,3.00708 4.35889,2.48291c1.88977,-0.51038 3.00708,-2.46912 2.4967,-4.35889z" fill="#8d6c9f"/><path d="M76.80469,167.80334c-0.81384,-0.46899 -1.77942,-0.59314 -2.68982,-0.35864c-0.9104,0.24829 -1.68286,0.85522 -2.15186,1.66907l-3.53125,6.11072c-0.86902,1.66907 -0.27588,3.73816 1.3656,4.68994c1.64148,0.95178 3.73816,0.42761 4.74512,-1.15869l3.53125,-6.11072c0.48279,-0.81384 0.60693,-1.77942 0.37244,-2.68982c-0.2345,-0.89661 -0.82764,-1.68286 -1.64148,-2.15186z" fill="#8d6c9f"/><path d="M146.97449,169.11377c-1.02075,-1.6001 -3.11743,-2.11047 -4.74512,-1.15869c-1.64148,0.93799 -2.24841,3.00708 -1.3656,4.68994l3.53125,6.11072c0.59314,1.1449 1.77942,1.87598 3.07605,1.88977c1.29663,0.01379 2.4967,-0.6759 3.13123,-1.80701c0.63452,-1.1311 0.59314,-2.52429 -0.09656,-3.61401z" fill="#8d6c9f"/><path d="M92.55737,174.34168c-1.88977,-0.49658 -3.80713,0.62073 -4.31751,2.4967l-1.83459,6.78662c-0.37244,1.22766 -0.05518,2.57947 0.85523,3.50366c0.89661,0.92419 2.23462,1.28284 3.47607,0.93799c1.24145,-0.34485 2.19323,-1.35181 2.48291,-2.60706l1.84839,-6.81421c0.48279,-1.87598 -0.63452,-3.80713 -2.5105,-4.30371z" fill="#8d6c9f"/><path d="M147.07105,94.50232c0.78625,-0.6759 1.24145,-1.65527 1.24145,-2.68982v-24.71875c0.02759,-1.75183 -1.24145,-3.25537 -2.9657,-3.53125l-42.375,-7.0625c-1.02075,-0.17932 -2.06909,0.11035 -2.85534,0.77246c-0.81384,0.6897 -1.26904,1.69666 -1.24146,2.75879v46.67871c-2.31738,-0.52417 -4.68994,-0.77246 -7.0625,-0.77246c-15.57336,0 -28.25,11.09033 -28.25,24.71875c0,13.62842 12.67664,24.71875 28.25,24.71875c15.57336,0 28.25,-11.09033 28.25,-24.71875v-39.36792l24.1532,4.05542c1.03455,0.15173 2.08289,-0.15173 2.85535,-0.84143zM141.25,87.64673l-24.1532,-4.02783c-1.03454,-0.16553 -2.08288,0.12414 -2.86914,0.81384c-0.78625,0.67591 -1.24145,1.66907 -1.22766,2.71741v43.5061c0,9.75232 -9.50403,17.65625 -21.1875,17.65625c-11.68347,0 -21.1875,-7.90393 -21.1875,-17.65625c0,-9.75232 9.50403,-17.65625 21.1875,-17.65625c3.17261,0 6.31763,0.60693 9.25574,1.80701c1.08972,0.44141 2.33118,0.31726 3.31055,-0.34485c0.97937,-0.66211 1.55871,-1.76562 1.55871,-2.95191v-47.31323l35.3125,5.90381z" fill="#8d6c9f"/><path d="M135.42896,39.97486c2.52429,0.95178 4.99341,2.02771 7.40735,3.24157c0.49658,0.26209 1.03455,0.38623 1.5863,0.40003c1.62768,-0.0138 3.04846,-1.13111 3.4209,-2.71741c0.37243,-1.5863 -0.37244,-3.21399 -1.8208,-3.95886c-2.64844,-1.32422 -5.35205,-2.5105 -8.12464,-3.53125c-1.79321,-0.55176 -3.69678,0.37243 -4.35889,2.13806c-0.64831,1.75183 0.16553,3.71057 1.88977,4.45545z" fill="#8d6c9f"/><path d="M57.02417,57.02417c16.86999,-16.78723 40.73352,-24.51184 64.2384,-20.75989c1.94495,0.31726 3.77954,-1.02075 4.0968,-2.9657c0.31726,-1.94495 -1.02075,-3.77954 -2.9657,-4.0968c-34.81592,-5.65552 -69.31457,11.80762 -85.37073,43.23023c-16.04236,31.40881 -9.97302,69.59045 15.02161,94.48852c1.40698,1.20007 3.48987,1.11731 4.80029,-0.17932c1.31043,-1.31043 1.37939,-3.39331 0.17932,-4.80029c-28.98108,-28.96729 -28.98108,-75.94946 0,-104.91675z" fill="#8d6c9f"/><path d="M166.89295,52.04455c-2.33118,-2.33118 -4.80029,-4.52441 -7.37976,-6.56592c-0.97937,-0.88281 -2.38635,-1.15869 -3.62781,-0.6897c-1.24145,0.4552 -2.11047,1.57251 -2.26221,2.89673c-0.15173,1.31043 0.44141,2.60706 1.54492,3.33814c2.35877,1.86218 4.60718,3.8761 6.74524,6.00037c28.95349,28.96729 28.95349,75.92188 0,104.88916c-1.00696,0.85522 -1.44837,2.20703 -1.1449,3.50366c0.31726,1.28284 1.32422,2.2898 2.60705,2.60705c1.29663,0.30347 2.64844,-0.12414 3.51746,-1.1311c31.69848,-31.72607 31.69848,-83.12232 0,-114.84839z" fill="#8d6c9f"/></g></g></g></g></svg>
